<svg width="47" height="48" viewBox="0 0 47 48" fill="none" xmlns="http://www.w3.org/2000/svg">
<path d="M45.9999 22.7007C46.0085 26.0004 45.2376 29.2554 43.7499 32.2007C41.986 35.73 39.2743 38.6986 35.9186 40.7739C32.5628 42.8491 28.6956 43.9491 24.75 43.9507C21.4503 43.9593 18.1953 43.1883 15.25 41.7007L1 46.4507L5.74999 32.2007C4.26232 29.2554 3.49139 26.0004 3.5 22.7007C3.50152 18.7551 4.60152 14.8878 6.67679 11.5321C8.75205 8.17634 11.7206 5.46464 15.25 3.70072C18.1953 2.21305 21.4503 1.44212 24.75 1.45072H26C31.2108 1.7382 36.1325 3.93762 39.8228 7.62786C43.513 11.3181 45.7124 16.2398 45.9999 21.4507V22.7007Z" stroke="#2D74FF" stroke-width="2" stroke-linecap="round" stroke-linejoin="round"/>
</svg>
